<svg enable-background="new 0 0 1024 1024" viewBox="0 0 1024 1024" xmlns="http://www.w3.org/2000/svg" xmlns:xlink="http://www.w3.org/1999/xlink"><linearGradient id="a"><stop offset="0" stop-color="#fcb53b"/><stop offset="1" stop-color="#ffd58e"/></linearGradient><linearGradient id="b" gradientUnits="userSpaceOnUse" x1="505.3029" x2="582.9758" xlink:href="#a" y1="395.1877" y2="395.1877"/><linearGradient id="c" gradientUnits="userSpaceOnUse" x1="621.0081" x2="699.014" y1="512.2027" y2="512.2027"><stop offset="0" stop-color="#0090a1"/><stop offset="1" stop-color="#7ad0e2"/></linearGradient><linearGradient id="d"><stop offset="0" stop-color="#00a880"/><stop offset="1" stop-color="#93d0ac"/></linearGradient><linearGradient id="e" gradientUnits="userSpaceOnUse" x1="582.9749" x2="660.3242" xlink:href="#d" y1="473.1987" y2="473.1987"/><linearGradient id="f"><stop offset="0" stop-color="#ee3124"/><stop offset="1" stop-color="#b5231d"/></linearGradient><linearGradient id="g" gradientUnits="userSpaceOnUse" x1="426.6639" x2="503.0716" xlink:href="#f" y1="551.2069" y2="551.2069"/><linearGradient id="h" gradientUnits="userSpaceOnUse" x1="427.3089" x2="503.0807" xlink:href="#f" y1="473.1987" y2="473.1987"/><linearGradient id="i"><stop offset="0" stop-color="#ee3124"/><stop offset="1" stop-color="#ea5329"/></linearGradient><linearGradient id="j" gradientUnits="userSpaceOnUse" x1="388.6319" x2="465.0186" xlink:href="#i" y1="590.2147" y2="590.2147"/><linearGradient id="k"><stop offset="0" stop-color="#f7921e"/><stop offset="1" stop-color="#fcb53b"/></linearGradient><linearGradient id="l" gradientUnits="userSpaceOnUse" x1="465.9854" x2="543.3331" xlink:href="#k" y1="668.228" y2="668.228"/><linearGradient id="m"><stop offset="0" stop-color="#ea5329"/><stop offset="1" stop-color="#f7921e"/></linearGradient><linearGradient id="n" gradientUnits="userSpaceOnUse" x1="426.9868" x2="503.8055" xlink:href="#m" y1="629.2202" y2="629.2202"/><linearGradient id="o" gradientUnits="userSpaceOnUse" x1="504.6579" x2="582.6689" xlink:href="#a" y1="629.2202" y2="629.2202"/><linearGradient id="p" gradientUnits="userSpaceOnUse" x1="582.9758" x2="659.3637" xlink:href="#d" y1="551.2069" y2="551.2069"/><linearGradient id="q" gradientUnits="userSpaceOnUse" x1="466.2998" x2="543.6702" xlink:href="#k" y1="356.1797" y2="356.1797"/><linearGradient id="r" gradientUnits="userSpaceOnUse" x1="387.9878" x2="465.0363" xlink:href="#i" y1="434.1907" y2="434.1907"/><linearGradient id="s" gradientUnits="userSpaceOnUse" x1="426.6639" x2="503.6947" xlink:href="#m" y1="395.1877" y2="395.1877"/><path d="m543.77 434.2 39.01-39.02-39.01-39-39 39z" fill="url(#b)"/><path d="m660.79 551.21 39-39.01-39-39-39.01 39z" fill="url(#c)"/><path d="m621.78 512.2 39.01-39-39.01-39-39 39z" fill="url(#e)"/><path d="m465.76 512.2-39.01 39.01 39.01 39 39.01-39z" fill="url(#g)"/><path d="m504.77 473.2-39.01-39-39.01 39 39.01 39z" fill="url(#h)"/><path d="m426.75 551.21-39 39 39 39.01 39.01-39.01z" fill="url(#j)"/><path d="m465.76 668.23 39.01 39 39-39-39-39.01z" fill="url(#l)"/><path d="m465.76 590.21-39.01 39.01 39.01 39.01 39.01-39.01z" fill="url(#n)"/><path d="m504.77 629.22 39 39.01 39.01-39.01-39.01-39.01z" fill="url(#o)"/><path d="m621.78 512.2-39 39.01 39 39 39.01-39z" fill="url(#p)"/><path d="m543.77 356.18-39-39-39.02 39 39.02 39z" fill="url(#q)"/><path d="m465.76 434.2-39.01-39.02-39 39.02 39 39z" fill="url(#r)"/><path d="m504.77 395.18-39.02-39-39 39 39.01 39.02z" fill="url(#s)"/></svg>